:SAMPLES-PER-SECOND 24
:FULLY-SPECIFIED
:DEGREES
317
root  9.87818 39.0424 20.6791 6.16846 -46.2323 -0.701843
RightUpLeg  -7.68231 3.21732 -17.4089
RightLeg  32.461 -10.672 -7.47688
RightFoot  0.00337745 -2.00472 19.7861
RightToes  -2.08645e-008 3.77894e-005 6.81332e-007
Spine  -2.29344 -0.0300252 -3.23521
Spine1  12.438 -1.13274 4.58534
HEad  -35.074 29.312 -13.9812
LeftShoulder1  7.23219 -12.9738 -37.7913
LeftArm  4.14282 5.42981 -24.4497
LeftForeArm  148.63 -77.8315 -130.922
LeftHand  -0.506736 -2.29927 7.8575
RightShoulder  3.91513 6.59686 32.8767
RightArm  6.2345 -20.561 34.289
RightForeArm  67.0162 77.116 44.1249
RightHand  -0.265086 9.00463 -2.51997
LeftUpLeg  -12.3727 -2.44533 4.69048
LeftLeg  23.5782 13.7406 6.80345
LeftFoot  -10.959 0.105054 -11.8994
LeftToes  1.24767e-006 1.47042e-008 1.32732e-009
318
root  9.91803 39.1704 21.1427 7.04468 -45.1586 -1.81799
RightUpLeg  -12.0819 3.55929 -16.7001
RightLeg  39.9318 -10.2517 -9.3423
RightFoot  6.38275 -1.92604 12.5895
RightToes  -2.08645e-008 3.77894e-005 6.81332e-007
Spine  -0.716328 -0.196758 -3.87757
Spine1  11.2635 -1.85336 6.60251
HEad  -36.2826 28.7638 -14.8473
LeftShoulder1  7.41402 -13.1535 -38.387
LeftArm  3.1394 7.08102 -26.7209
LeftForeArm  153.614 -77.1289 -134.849
LeftHand  -0.514116 -2.41 7.86307
RightShoulder  3.952 6.592 33.2606
RightArm  3.38193 -24.5198 33.2408
RightForeArm  69.642 78.1866 51.1745
RightHand  -0.476883 7.78854 -4.55993
LeftUpLeg  -12.6058 -3.18362 5.06629
LeftLeg  24.3618 13.3773 6.85787
LeftFoot  -10.774 0.122911 -11.8071
LeftToes  1.24767e-006 1.47042e-008 1.32732e-009
319
root  9.72315 39.4658 21.4563 7.89404 -44.0093 -2.39099
RightUpLeg  -15.2199 2.47434 -15.5749
RightLeg  42.935 -8.36499 -8.5458
RightFoot  8.03947 -0.793932 4.85879
RightToes  -2.08645e-008 3.77894e-005 6.81332e-007
Spine  0.141713 -0.761743 -6.24434
Spine1  10.2488 -3.2508 9.576
HEad  -37.4295 29.3553 -16.2693
LeftShoulder1  7.28064 -12.9964 -38.018
LeftArm  1.99807 11.8842 -30.2862
LeftForeArm  161.156 -73.7672 -145.64
LeftHand  -0.49145 -2.22744 7.696
RightShoulder  3.94843 6.56677 33.3232
RightArm  3.13884 -29.7049 32.0729
RightForeArm  87.4619 80.1586 75.6587
RightHand  -0.335343 7.82743 -3.31162
LeftUpLeg  -12.1492 -3.19779 5.64205
LeftLeg  22.8812 12.0172 5.83698
LeftFoot  -9.23858 0.274557 -11.9207
LeftToes  1.24767e-006 1.47042e-008 1.32732e-009
320
root  9.3826 39.8455 21.6908 8.79932 -42.8514 -2.72015
RightUpLeg  -15.6914 1.47983 -14.2755
RightLeg  38.3913 -5.49027 -4.98079
RightFoot  2.85127 -0.620253 5.34228
RightToes  -2.08645e-008 3.77894e-005 6.81332e-007
Spine  -0.492019 -1.77172 -8.06154
Spine1  10.6716 -4.75385 11.106
HEad  -37.2835 30.7387 -16.5347
LeftShoulder1  7.09585 -12.7809 -37.4881
LeftArm  1.35244 15.8988 -32.6165
LeftForeArm  163.216 -71.5971 -150.072
LeftHand  -0.477675 -1.7683 7.92594
RightShoulder  3.95085 6.5645 33.3562
RightArm  3.07229 -32.9106 32.0505
RightForeArm  98.5638 80.4755 85.8244
RightHand  -0.346546 8.14965 -3.33557
LeftUpLeg  -11.3577 -3.5095 6.294
LeftLeg  20.2157 11.4242 4.9351
LeftFoot  -7.02761 0.51082 -12.3989
LeftToes  1.24767e-006 1.47042e-008 1.32732e-009
321
root  8.92671 40.1114 21.8377 9.17969 -42.4291 -2.66888
RightUpLeg  -14.6607 4.31173 -13.3774
RightLeg  28.5335 -4.45974 -2.85761
RightFoot  -2.59908 -0.747538 9.6066
RightToes  -2.08645e-008 3.77894e-005 6.81332e-007
Spine  -0.873733 -2.39412 -9.35923
Spine1  10.6623 -5.43216 11.1414
HEad  -35.8397 31.8985 -15.7514
LeftShoulder1  7.02841 -12.709 -37.2735
LeftArm  1.35125 18.494 -33.3006
LeftForeArm  162.776 -72.0569 -149.199
LeftHand  -0.438628 -1.85303 7.21614
RightShoulder  4.00083 6.60788 33.6805
RightArm  2.73445 -34.7214 31.9972
RightForeArm  95.9594 80.4884 80.3309
RightHand  -0.199807 8.92901 -2.01289
LeftUpLeg  -10.6242 -3.16129 6.78785
LeftLeg  18.6643 10.5397 4.34049
LeftFoot  -5.31593 0.744534 -13.4822
LeftToes  1.24767e-006 1.47042e-008 1.32732e-009
322
root  8.42564 40.1728 21.9393 8.91553 -42.4107 -2.40295
RightUpLeg  -13.5706 9.83146 -13.1455
RightLeg  18.191 -5.71087 -2.29906
RightFoot  -5.839 -0.531416 10.2038
RightToes  -2.08645e-008 3.77894e-005 6.81332e-007
Spine  -0.303232 -2.54577 -10.0625
Spine1  9.82026 -5.49067 11.0303
HEad  -34.8881 32.5328 -15.6651
LeftShoulder1  7.09818 -12.7982 -37.4574
LeftArm  2.1657 19.5977 -32.5737
LeftForeArm  159.248 -73.8341 -145.163
LeftHand  -0.442209 -2.26595 6.91037
RightShoulder  4.06141 6.67847 33.999
RightArm  3.84056 -35.3751 31.1763
RightForeArm  89.5083 80.2405 75.8054
RightHand  -0.288509 8.30108 -2.8205
LeftUpLeg  -9.81471 -1.9652 7.17633
LeftLeg  18.3689 8.73445 3.73663
LeftFoot  -4.80259 0.865305 -14.5824
LeftToes  1.24767e-006 1.47042e-008 1.32732e-009
323
root  7.90308 39.9952 22.0076 8.68872 -42.088 -2.00964
RightUpLeg  -13.2795 6.6031 -11.3204
RightLeg  10.3971 3.81156 -2.23047
RightFoot  -7.92753 -0.403687 11.7125
RightToes  -2.08645e-008 3.77894e-005 6.81332e-007
Spine  -0.307034 -2.79478 -9.82168
Spine1  9.71416 -5.47757 10.2081
HEad  -35.1353 32.6821 -16.4446
LeftShoulder1  7.14283 -12.8751 -37.5226
LeftArm  3.56672 19.0453 -30.9757
LeftForeArm  155.444 -75.2784 -140.997
LeftHand  -0.485064 -2.50437 7.34999
RightShoulder  4.03786 6.68775 33.7327
RightArm  5.36654 -34.5034 30.699
RightForeArm  85.3601 80.043 72.9272
RightHand  -0.375017 8.04391 -3.61182
LeftUpLeg  -9.71422 -1.9384 7.48136
LeftLeg  19.3267 8.34097 3.7129
LeftFoot  -5.94257 0.752059 -15.1259
LeftToes  1.24767e-006 1.47042e-008 1.32732e-009
324
root  7.35716 39.6403 21.938 8.625 -41.1479 -1.61499
RightUpLeg  -14.8225 6.33688 -10.1353
RightLeg  9.25711 9.89959 -1.91805
RightFoot  -8.44973 -0.395072 13.3293
RightToes  -2.08645e-008 3.77894e-005 6.81332e-007
Spine  -0.100571 -2.92616 -9.46518
Spine1  9.54974 -5.46745 9.79828
HEad  -35.9584 32.036 -17.3373
LeftShoulder1  7.06783 -12.8374 -37.1762
LeftArm  4.4928 17.3616 -29.361
LeftForeArm  154.513 -75.8488 -139.214
LeftHand  -0.453324 -2.55054 6.84343
RightShoulder  3.95452 6.61583 33.193
RightArm  5.55331 -32.4467 30.7077
RightForeArm  82.1386 79.8281 68.1847
RightHand  -0.258976 8.79804 -2.5014
LeftUpLeg  -10.4019 -3.48061 7.89334
LeftLeg  21.1944 9.28639 4.3
LeftFoot  -8.07158 0.483201 -15.1557
LeftToes  1.24767e-006 1.47042e-008 1.32732e-009
325
root  6.82915 39.277 21.7534 7.67993 -40.0084 -1.32654
RightUpLeg  -17.2621 16.3998 -11.5276
RightLeg  15.0108 0.45806 -0.958096
RightFoot  -8.81138 -0.270604 9.53158
RightToes  -2.08645e-008 3.77894e-005 6.81332e-007
Spine  1.83977 -2.52967 -8.33503
Spine1  8.94227 -5.04841 9.39053
HEad  -36.9771 30.5468 -18.4184
LeftShoulder1  7.0676 -12.8676 -37.0976
LeftArm  4.49513 14.5381 -27.8222
LeftForeArm  151.728 -76.6702 -136.047
LeftHand  -0.440182 -2.53188 6.66847
RightShoulder  3.90719 6.57089 32.8981
RightArm  5.03732 -29.6537 30.8762
RightForeArm  76.21 79.3088 61.5564
RightHand  -0.246514 8.78754 -2.39985
LeftUpLeg  -9.9403 -5.56991 8.3111
LeftLeg  22.4249 10.443 5.03309
LeftFoot  -9.9447 0.244074 -15.073
LeftToes  1.24767e-006 1.47042e-008 1.32732e-009
326
root  6.2783 39.0189 21.535 6.56323 -38.1247 -1.23871
RightUpLeg  -18.2632 18.2645 -10.4126
RightLeg  21.1427 -4.02881 -1.93005
RightFoot  -10.2432 -0.122007 5.46513
RightToes  -2.08645e-008 3.77894e-005 6.81332e-007
Spine  3.68471 -2.44386 -6.10227
Spine1  9.04996 -4.70045 7.81872
HEad  -37.8329 28.8948 -19.3416
LeftShoulder1  7.18701 -13.0061 -37.4462
LeftArm  3.78048 11.2108 -26.9208
LeftForeArm  143.781 -78.2231 -127.911
LeftHand  -0.518444 -2.39894 7.93792
RightShoulder  3.9076 6.61675 32.7259
RightArm  5.09568 -26.3058 31.1445
RightForeArm  67.4301 78.2207 52.7972
RightHand  -0.340236 8.03093 -3.31088
LeftUpLeg  -9.07703 -8.35261 8.93177
LeftLeg  22.9475 11.9616 5.83137
LeftFoot  -11.1867 0.0875653 -15.4245
LeftToes  1.24767e-006 1.47042e-008 1.32732e-009
